<?xml version='1.0' encoding='utf-8'?>
<xmeml version="5">
    <sequence>
        <name>Subtitle Project</name>
        <duration>92173</duration>
        <rate>
            <timebase>24</timebase>
            <ntsc>false</ntsc>
        </rate>
        <media>
            <video>
                <format>
                    <samplecharacteristics>
                        <width>1920</width>
                        <height>1080</height>
                        <pixelaspectratio>square</pixelaspectratio>
                        <fielddominance>none</fielddominance>
                        <rate>
                            <timebase>24</timebase>
                            <ntsc>false</ntsc>
                        </rate>
                    </samplecharacteristics>
                </format>
                <track>
                    <clipitem id="Clip-1">
                        <name>Clip-1</name>
                        <start>0</start>
                        <end>131</end>
                        <in>0</in>
                        <out>131</out>
                        <file id="file-1">
                            <name>sentence_1.png</name>
                            <pathurl>
                                C:/Users/coffe/Documents/Milwaukee/testing_stuff/furigana_subtitles/ignite_subs/sentence_1.png</pathurl>
                            <rate>
                                <timebase>24</timebase>
                                <ntsc>false</ntsc>
                            </rate>
                            <duration>131</duration>
                            <media>
                                <video>
                                    <duration>131</duration>
                                </video>
                            </media>
                        </file>
                    </clipitem>
                    <clipitem id="Clip-2">
                        <name>Clip-2</name>
                        <start>131</start>
                        <end>266</end>
                        <in>0</in>
                        <out>135</out>
                        <file id="file-2">
                            <name>sentence_2.png</name>
                            <pathurl>
                                C:/Users/coffe/Documents/Milwaukee/testing_stuff/furigana_subtitles/ignite_subs/sentence_2.png</pathurl>
                            <rate>
                                <timebase>24</timebase>
                                <ntsc>false</ntsc>
                            </rate>
                            <duration>135</duration>
                            <media>
                                <video>
                                    <duration>135</duration>
                                </video>
                            </media>
                        </file>
                    </clipitem>
                    <clipitem id="Clip-3">
                        <name>Clip-3</name>
                        <start>266</start>
                        <end>407</end>
                        <in>0</in>
                        <out>141</out>
                        <file id="file-3">
                            <name>sentence_3.png</name>
                            <pathurl>
                                C:/Users/coffe/Documents/Milwaukee/testing_stuff/furigana_subtitles/ignite_subs/sentence_3.png</pathurl>
                            <rate>
                                <timebase>24</timebase>
                                <ntsc>false</ntsc>
                            </rate>
                            <duration>141</duration>
                            <media>
                                <video>
                                    <duration>141</duration>
                                </video>
                            </media>
                        </file>
                    </clipitem>
                    <clipitem id="Clip-4">
                        <name>Clip-4</name>
                        <start>407</start>
                        <end>560</end>
                        <in>0</in>
                        <out>153</out>
                        <file id="file-4">
                            <name>sentence_4.png</name>
                            <pathurl>
                                C:/Users/coffe/Documents/Milwaukee/testing_stuff/furigana_subtitles/ignite_subs/sentence_4.png</pathurl>
                            <rate>
                                <timebase>24</timebase>
                                <ntsc>false</ntsc>
                            </rate>
                            <duration>153</duration>
                            <media>
                                <video>
                                    <duration>153</duration>
                                </video>
                            </media>
                        </file>
                    </clipitem>
                    <clipitem id="Clip-5">
                        <name>Clip-5</name>
                        <start>560</start>
                        <end>632</end>
                        <in>0</in>
                        <out>72</out>
                        <file id="file-5">
                            <name>sentence_5.png</name>
                            <pathurl>
                                C:/Users/coffe/Documents/Milwaukee/testing_stuff/furigana_subtitles/ignite_subs/sentence_5.png</pathurl>
                            <rate>
                                <timebase>24</timebase>
                                <ntsc>false</ntsc>
                            </rate>
                            <duration>72</duration>
                            <media>
                                <video>
                                    <duration>72</duration>
                                </video>
                            </media>
                        </file>
                    </clipitem>
                    <clipitem id="Clip-6">
                        <name>Clip-6</name>
                        <start>632</start>
                        <end>702</end>
                        <in>0</in>
                        <out>70</out>
                        <file id="file-6">
                            <name>sentence_6.png</name>
                            <pathurl>
                                C:/Users/coffe/Documents/Milwaukee/testing_stuff/furigana_subtitles/ignite_subs/sentence_6.png</pathurl>
                            <rate>
                                <timebase>24</timebase>
                                <ntsc>false</ntsc>
                            </rate>
                            <duration>70</duration>
                            <media>
                                <video>
                                    <duration>70</duration>
                                </video>
                            </media>
                        </file>
                    </clipitem>
                    <clipitem id="Clip-7">
                        <name>Clip-7</name>
                        <start>702</start>
                        <end>864</end>
                        <in>0</in>
                        <out>162</out>
                        <file id="file-7">
                            <name>sentence_7.png</name>
                            <pathurl>
                                C:/Users/coffe/Documents/Milwaukee/testing_stuff/furigana_subtitles/ignite_subs/sentence_7.png</pathurl>
                            <rate>
                                <timebase>24</timebase>
                                <ntsc>false</ntsc>
                            </rate>
                            <duration>162</duration>
                            <media>
                                <video>
                                    <duration>162</duration>
                                </video>
                            </media>
                        </file>
                    </clipitem>
                    <clipitem id="Clip-8">
                        <name>Clip-8</name>
                        <start>864</start>
                        <end>1031</end>
                        <in>0</in>
                        <out>167</out>
                        <file id="file-8">
                            <name>sentence_8.png</name>
                            <pathurl>
                                C:/Users/coffe/Documents/Milwaukee/testing_stuff/furigana_subtitles/ignite_subs/sentence_8.png</pathurl>
                            <rate>
                                <timebase>24</timebase>
                                <ntsc>false</ntsc>
                            </rate>
                            <duration>167</duration>
                            <media>
                                <video>
                                    <duration>167</duration>
                                </video>
                            </media>
                        </file>
                    </clipitem>
                    <clipitem id="Clip-9">
                        <name>Clip-9</name>
                        <start>1031</start>
                        <end>1142</end>
                        <in>0</in>
                        <out>111</out>
                        <file id="file-9">
                            <name>sentence_9.png</name>
                            <pathurl>
                                C:/Users/coffe/Documents/Milwaukee/testing_stuff/furigana_subtitles/ignite_subs/sentence_9.png</pathurl>
                            <rate>
                                <timebase>24</timebase>
                                <ntsc>false</ntsc>
                            </rate>
                            <duration>111</duration>
                            <media>
                                <video>
                                    <duration>111</duration>
                                </video>
                            </media>
                        </file>
                    </clipitem>
                    <clipitem id="Clip-10">
                        <name>Clip-10</name>
                        <start>1142</start>
                        <end>1299</end>
                        <in>0</in>
                        <out>157</out>
                        <file id="file-10">
                            <name>sentence_10.png</name>
                            <pathurl>
                                C:/Users/coffe/Documents/Milwaukee/testing_stuff/furigana_subtitles/ignite_subs/sentence_10.png</pathurl>
                            <rate>
                                <timebase>24</timebase>
                                <ntsc>false</ntsc>
                            </rate>
                            <duration>157</duration>
                            <media>
                                <video>
                                    <duration>157</duration>
                                </video>
                            </media>
                        </file>
                    </clipitem>
                    <clipitem id="Clip-11">
                        <name>Clip-11</name>
                        <start>1299</start>
                        <end>1425</end>
                        <in>0</in>
                        <out>126</out>
                        <file id="file-11">
                            <name>sentence_11.png</name>
                            <pathurl>
                                C:/Users/coffe/Documents/Milwaukee/testing_stuff/furigana_subtitles/ignite_subs/sentence_11.png</pathurl>
                            <rate>
                                <timebase>24</timebase>
                                <ntsc>false</ntsc>
                            </rate>
                            <duration>126</duration>
                            <media>
                                <video>
                                    <duration>126</duration>
                                </video>
                            </media>
                        </file>
                    </clipitem>
                    <clipitem id="Clip-12">
                        <name>Clip-12</name>
                        <start>1425</start>
                        <end>1497</end>
                        <in>0</in>
                        <out>72</out>
                        <file id="file-12">
                            <name>sentence_12.png</name>
                            <pathurl>
                                C:/Users/coffe/Documents/Milwaukee/testing_stuff/furigana_subtitles/ignite_subs/sentence_12.png</pathurl>
                            <rate>
                                <timebase>24</timebase>
                                <ntsc>false</ntsc>
                            </rate>
                            <duration>72</duration>
                            <media>
                                <video>
                                    <duration>72</duration>
                                </video>
                            </media>
                        </file>
                    </clipitem>
                    <clipitem id="Clip-13">
                        <name>Clip-13</name>
                        <start>1497</start>
                        <end>1712</end>
                        <in>0</in>
                        <out>215</out>
                        <file id="file-13">
                            <name>sentence_13.png</name>
                            <pathurl>
                                C:/Users/coffe/Documents/Milwaukee/testing_stuff/furigana_subtitles/ignite_subs/sentence_13.png</pathurl>
                            <rate>
                                <timebase>24</timebase>
                                <ntsc>false</ntsc>
                            </rate>
                            <duration>215</duration>
                            <media>
                                <video>
                                    <duration>215</duration>
                                </video>
                            </media>
                        </file>
                    </clipitem>
                    <clipitem id="Clip-14">
                        <name>Clip-14</name>
                        <start>1820</start>
                        <end>1958</end>
                        <in>0</in>
                        <out>138</out>
                        <file id="file-14">
                            <name>sentence_14.png</name>
                            <pathurl>
                                C:/Users/coffe/Documents/Milwaukee/testing_stuff/furigana_subtitles/ignite_subs/sentence_14.png</pathurl>
                            <rate>
                                <timebase>24</timebase>
                                <ntsc>false</ntsc>
                            </rate>
                            <duration>138</duration>
                            <media>
                                <video>
                                    <duration>138</duration>
                                </video>
                            </media>
                        </file>
                    </clipitem>
                    <clipitem id="Clip-15">
                        <name>Clip-15</name>
                        <start>1958</start>
                        <end>2093</end>
                        <in>0</in>
                        <out>135</out>
                        <file id="file-15">
                            <name>sentence_15.png</name>
                            <pathurl>
                                C:/Users/coffe/Documents/Milwaukee/testing_stuff/furigana_subtitles/ignite_subs/sentence_15.png</pathurl>
                            <rate>
                                <timebase>24</timebase>
                                <ntsc>false</ntsc>
                            </rate>
                            <duration>135</duration>
                            <media>
                                <video>
                                    <duration>135</duration>
                                </video>
                            </media>
                        </file>
                    </clipitem>
                    <clipitem id="Clip-16">
                        <name>Clip-16</name>
                        <start>2093</start>
                        <end>2228</end>
                        <in>0</in>
                        <out>135</out>
                        <file id="file-16">
                            <name>sentence_16.png</name>
                            <pathurl>
                                C:/Users/coffe/Documents/Milwaukee/testing_stuff/furigana_subtitles/ignite_subs/sentence_16.png</pathurl>
                            <rate>
                                <timebase>24</timebase>
                                <ntsc>false</ntsc>
                            </rate>
                            <duration>135</duration>
                            <media>
                                <video>
                                    <duration>135</duration>
                                </video>
                            </media>
                        </file>
                    </clipitem>
                    <clipitem id="Clip-17">
                        <name>Clip-17</name>
                        <start>2228</start>
                        <end>2375</end>
                        <in>0</in>
                        <out>147</out>
                        <file id="file-17">
                            <name>sentence_17.png</name>
                            <pathurl>
                                C:/Users/coffe/Documents/Milwaukee/testing_stuff/furigana_subtitles/ignite_subs/sentence_17.png</pathurl>
                            <rate>
                                <timebase>24</timebase>
                                <ntsc>false</ntsc>
                            </rate>
                            <duration>147</duration>
                            <media>
                                <video>
                                    <duration>147</duration>
                                </video>
                            </media>
                        </file>
                    </clipitem>
                    <clipitem id="Clip-18">
                        <name>Clip-18</name>
                        <start>2375</start>
                        <end>2447</end>
                        <in>0</in>
                        <out>72</out>
                        <file id="file-18">
                            <name>sentence_18.png</name>
                            <pathurl>
                                C:/Users/coffe/Documents/Milwaukee/testing_stuff/furigana_subtitles/ignite_subs/sentence_18.png</pathurl>
                            <rate>
                                <timebase>24</timebase>
                                <ntsc>false</ntsc>
                            </rate>
                            <duration>72</duration>
                            <media>
                                <video>
                                    <duration>72</duration>
                                </video>
                            </media>
                        </file>
                    </clipitem>
                    <clipitem id="Clip-19">
                        <name>Clip-19</name>
                        <start>2447</start>
                        <end>2514</end>
                        <in>0</in>
                        <out>67</out>
                        <file id="file-19">
                            <name>sentence_19.png</name>
                            <pathurl>
                                C:/Users/coffe/Documents/Milwaukee/testing_stuff/furigana_subtitles/ignite_subs/sentence_19.png</pathurl>
                            <rate>
                                <timebase>24</timebase>
                                <ntsc>false</ntsc>
                            </rate>
                            <duration>67</duration>
                            <media>
                                <video>
                                    <duration>67</duration>
                                </video>
                            </media>
                        </file>
                    </clipitem>
                    <clipitem id="Clip-20">
                        <name>Clip-20</name>
                        <start>2514</start>
                        <end>2687</end>
                        <in>0</in>
                        <out>173</out>
                        <file id="file-20">
                            <name>sentence_20.png</name>
                            <pathurl>
                                C:/Users/coffe/Documents/Milwaukee/testing_stuff/furigana_subtitles/ignite_subs/sentence_20.png</pathurl>
                            <rate>
                                <timebase>24</timebase>
                                <ntsc>false</ntsc>
                            </rate>
                            <duration>173</duration>
                            <media>
                                <video>
                                    <duration>173</duration>
                                </video>
                            </media>
                        </file>
                    </clipitem>
                    <clipitem id="Clip-21">
                        <name>Clip-21</name>
                        <start>2687</start>
                        <end>2850</end>
                        <in>0</in>
                        <out>163</out>
                        <file id="file-21">
                            <name>sentence_21.png</name>
                            <pathurl>
                                C:/Users/coffe/Documents/Milwaukee/testing_stuff/furigana_subtitles/ignite_subs/sentence_21.png</pathurl>
                            <rate>
                                <timebase>24</timebase>
                                <ntsc>false</ntsc>
                            </rate>
                            <duration>163</duration>
                            <media>
                                <video>
                                    <duration>163</duration>
                                </video>
                            </media>
                        </file>
                    </clipitem>
                    <clipitem id="Clip-22">
                        <name>Clip-22</name>
                        <start>2850</start>
                        <end>2960</end>
                        <in>0</in>
                        <out>110</out>
                        <file id="file-22">
                            <name>sentence_22.png</name>
                            <pathurl>
                                C:/Users/coffe/Documents/Milwaukee/testing_stuff/furigana_subtitles/ignite_subs/sentence_22.png</pathurl>
                            <rate>
                                <timebase>24</timebase>
                                <ntsc>false</ntsc>
                            </rate>
                            <duration>110</duration>
                            <media>
                                <video>
                                    <duration>110</duration>
                                </video>
                            </media>
                        </file>
                    </clipitem>
                    <clipitem id="Clip-23">
                        <name>Clip-23</name>
                        <start>2960</start>
                        <end>3023</end>
                        <in>0</in>
                        <out>63</out>
                        <file id="file-23">
                            <name>sentence_23.png</name>
                            <pathurl>
                                C:/Users/coffe/Documents/Milwaukee/testing_stuff/furigana_subtitles/ignite_subs/sentence_23.png</pathurl>
                            <rate>
                                <timebase>24</timebase>
                                <ntsc>false</ntsc>
                            </rate>
                            <duration>63</duration>
                            <media>
                                <video>
                                    <duration>63</duration>
                                </video>
                            </media>
                        </file>
                    </clipitem>
                    <clipitem id="Clip-24">
                        <name>Clip-24</name>
                        <start>3023</start>
                        <end>3119</end>
                        <in>0</in>
                        <out>96</out>
                        <file id="file-24">
                            <name>sentence_24.png</name>
                            <pathurl>
                                C:/Users/coffe/Documents/Milwaukee/testing_stuff/furigana_subtitles/ignite_subs/sentence_24.png</pathurl>
                            <rate>
                                <timebase>24</timebase>
                                <ntsc>false</ntsc>
                            </rate>
                            <duration>96</duration>
                            <media>
                                <video>
                                    <duration>96</duration>
                                </video>
                            </media>
                        </file>
                    </clipitem>
                    <clipitem id="Clip-25">
                        <name>Clip-25</name>
                        <start>3119</start>
                        <end>3251</end>
                        <in>0</in>
                        <out>132</out>
                        <file id="file-25">
                            <name>sentence_25.png</name>
                            <pathurl>
                                C:/Users/coffe/Documents/Milwaukee/testing_stuff/furigana_subtitles/ignite_subs/sentence_25.png</pathurl>
                            <rate>
                                <timebase>24</timebase>
                                <ntsc>false</ntsc>
                            </rate>
                            <duration>132</duration>
                            <media>
                                <video>
                                    <duration>132</duration>
                                </video>
                            </media>
                        </file>
                    </clipitem>
                    <clipitem id="Clip-26">
                        <name>Clip-26</name>
                        <start>3251</start>
                        <end>3312</end>
                        <in>0</in>
                        <out>61</out>
                        <file id="file-26">
                            <name>sentence_26.png</name>
                            <pathurl>
                                C:/Users/coffe/Documents/Milwaukee/testing_stuff/furigana_subtitles/ignite_subs/sentence_26.png</pathurl>
                            <rate>
                                <timebase>24</timebase>
                                <ntsc>false</ntsc>
                            </rate>
                            <duration>61</duration>
                            <media>
                                <video>
                                    <duration>61</duration>
                                </video>
                            </media>
                        </file>
                    </clipitem>
                    <clipitem id="Clip-27">
                        <name>Clip-27</name>
                        <start>3312</start>
                        <end>3527</end>
                        <in>0</in>
                        <out>215</out>
                        <file id="file-27">
                            <name>sentence_27.png</name>
                            <pathurl>
                                C:/Users/coffe/Documents/Milwaukee/testing_stuff/furigana_subtitles/ignite_subs/sentence_27.png</pathurl>
                            <rate>
                                <timebase>24</timebase>
                                <ntsc>false</ntsc>
                            </rate>
                            <duration>215</duration>
                            <media>
                                <video>
                                    <duration>215</duration>
                                </video>
                            </media>
                        </file>
                    </clipitem>
                    <clipitem id="Clip-28">
                        <name>Clip-28</name>
                        <start>4064</start>
                        <end>4131</end>
                        <in>0</in>
                        <out>67</out>
                        <file id="file-28">
                            <name>sentence_28.png</name>
                            <pathurl>
                                C:/Users/coffe/Documents/Milwaukee/testing_stuff/furigana_subtitles/ignite_subs/sentence_28.png</pathurl>
                            <rate>
                                <timebase>24</timebase>
                                <ntsc>false</ntsc>
                            </rate>
                            <duration>67</duration>
                            <media>
                                <video>
                                    <duration>67</duration>
                                </video>
                            </media>
                        </file>
                    </clipitem>
                    <clipitem id="Clip-29">
                        <name>Clip-29</name>
                        <start>4131</start>
                        <end>4200</end>
                        <in>0</in>
                        <out>69</out>
                        <file id="file-29">
                            <name>sentence_29.png</name>
                            <pathurl>
                                C:/Users/coffe/Documents/Milwaukee/testing_stuff/furigana_subtitles/ignite_subs/sentence_29.png</pathurl>
                            <rate>
                                <timebase>24</timebase>
                                <ntsc>false</ntsc>
                            </rate>
                            <duration>69</duration>
                            <media>
                                <video>
                                    <duration>69</duration>
                                </video>
                            </media>
                        </file>
                    </clipitem>
                    <clipitem id="Clip-30">
                        <name>Clip-30</name>
                        <start>4200</start>
                        <end>4356</end>
                        <in>0</in>
                        <out>156</out>
                        <file id="file-30">
                            <name>sentence_30.png</name>
                            <pathurl>
                                C:/Users/coffe/Documents/Milwaukee/testing_stuff/furigana_subtitles/ignite_subs/sentence_30.png</pathurl>
                            <rate>
                                <timebase>24</timebase>
                                <ntsc>false</ntsc>
                            </rate>
                            <duration>156</duration>
                            <media>
                                <video>
                                    <duration>156</duration>
                                </video>
                            </media>
                        </file>
                    </clipitem>
                    <clipitem id="Clip-31">
                        <name>Clip-31</name>
                        <start>4356</start>
                        <end>4517</end>
                        <in>0</in>
                        <out>161</out>
                        <file id="file-31">
                            <name>sentence_31.png</name>
                            <pathurl>
                                C:/Users/coffe/Documents/Milwaukee/testing_stuff/furigana_subtitles/ignite_subs/sentence_31.png</pathurl>
                            <rate>
                                <timebase>24</timebase>
                                <ntsc>false</ntsc>
                            </rate>
                            <duration>161</duration>
                            <media>
                                <video>
                                    <duration>161</duration>
                                </video>
                            </media>
                        </file>
                    </clipitem>
                    <clipitem id="Clip-32">
                        <name>Clip-32</name>
                        <start>4517</start>
                        <end>4613</end>
                        <in>0</in>
                        <out>96</out>
                        <file id="file-32">
                            <name>sentence_32.png</name>
                            <pathurl>
                                C:/Users/coffe/Documents/Milwaukee/testing_stuff/furigana_subtitles/ignite_subs/sentence_32.png</pathurl>
                            <rate>
                                <timebase>24</timebase>
                                <ntsc>false</ntsc>
                            </rate>
                            <duration>96</duration>
                            <media>
                                <video>
                                    <duration>96</duration>
                                </video>
                            </media>
                        </file>
                    </clipitem>
                    <clipitem id="Clip-33">
                        <name>Clip-33</name>
                        <start>4613</start>
                        <end>4784</end>
                        <in>0</in>
                        <out>171</out>
                        <file id="file-33">
                            <name>sentence_33.png</name>
                            <pathurl>
                                C:/Users/coffe/Documents/Milwaukee/testing_stuff/furigana_subtitles/ignite_subs/sentence_33.png</pathurl>
                            <rate>
                                <timebase>24</timebase>
                                <ntsc>false</ntsc>
                            </rate>
                            <duration>171</duration>
                            <media>
                                <video>
                                    <duration>171</duration>
                                </video>
                            </media>
                        </file>
                    </clipitem>
                    <clipitem id="Clip-34">
                        <name>Clip-34</name>
                        <start>4784</start>
                        <end>4919</end>
                        <in>0</in>
                        <out>135</out>
                        <file id="file-34">
                            <name>sentence_34.png</name>
                            <pathurl>
                                C:/Users/coffe/Documents/Milwaukee/testing_stuff/furigana_subtitles/ignite_subs/sentence_34.png</pathurl>
                            <rate>
                                <timebase>24</timebase>
                                <ntsc>false</ntsc>
                            </rate>
                            <duration>135</duration>
                            <media>
                                <video>
                                    <duration>135</duration>
                                </video>
                            </media>
                        </file>
                    </clipitem>
                    <clipitem id="Clip-35">
                        <name>Clip-35</name>
                        <start>4919</start>
                        <end>4982</end>
                        <in>0</in>
                        <out>63</out>
                        <file id="file-35">
                            <name>sentence_35.png</name>
                            <pathurl>
                                C:/Users/coffe/Documents/Milwaukee/testing_stuff/furigana_subtitles/ignite_subs/sentence_35.png</pathurl>
                            <rate>
                                <timebase>24</timebase>
                                <ntsc>false</ntsc>
                            </rate>
                            <duration>63</duration>
                            <media>
                                <video>
                                    <duration>63</duration>
                                </video>
                            </media>
                        </file>
                    </clipitem>
                    <clipitem id="Clip-36">
                        <name>Clip-36</name>
                        <start>4982</start>
                        <end>5196</end>
                        <in>0</in>
                        <out>214</out>
                        <file id="file-36">
                            <name>sentence_36.png</name>
                            <pathurl>
                                C:/Users/coffe/Documents/Milwaukee/testing_stuff/furigana_subtitles/ignite_subs/sentence_36.png</pathurl>
                            <rate>
                                <timebase>24</timebase>
                                <ntsc>false</ntsc>
                            </rate>
                            <duration>214</duration>
                            <media>
                                <video>
                                    <duration>214</duration>
                                </video>
                            </media>
                        </file>
                    </clipitem>
                </track>
            </video>
        </media>
    </sequence>
</xmeml>